<svg t="1708698062021" class="icon" viewBox="0 0 1024 1024" version="1.1" xmlns="http://www.w3.org/2000/svg" p-id="34379" xmlns:xlink="http://www.w3.org/1999/xlink" width="200" height="200"><path d="M768 461.653333a42.666667 42.666667 0 0 0-42.666667 42.666667V810.666667a42.666667 42.666667 0 0 1-42.666666 42.666666H213.333333a42.666667 42.666667 0 0 1-42.666666-42.666666V341.333333a42.666667 42.666667 0 0 1 42.666666-42.666666h306.346667a42.666667 42.666667 0 0 0 0-85.333334H213.333333a128 128 0 0 0-128 128v469.333334a128 128 0 0 0 128 128h469.333334a128 128 0 0 0 128-128v-306.346667a42.666667 42.666667 0 0 0-42.666667-42.666667z m167.253333-349.866666a42.666667 42.666667 0 0 0-23.04-23.04A42.666667 42.666667 0 0 0 896 85.333333h-256a42.666667 42.666667 0 0 0 0 85.333334h153.173333L353.706667 609.706667a42.666667 42.666667 0 0 0 0 60.586666 42.666667 42.666667 0 0 0 60.586666 0L853.333333 230.826667V384a42.666667 42.666667 0 0 0 85.333334 0V128a42.666667 42.666667 0 0 0-3.413334-16.213333z" fill="#6632cc" p-id="34380"></path></svg>
