<?xml version="1.0" standalone="no"?><!DOCTYPE svg PUBLIC "-//W3C//DTD SVG 1.1//EN" "http://www.w3.org/Graphics/SVG/1.1/DTD/svg11.dtd"><svg t="1708695957169" class="icon" viewBox="0 0 1024 1024" version="1.1" xmlns="http://www.w3.org/2000/svg" p-id="11455" xmlns:xlink="http://www.w3.org/1999/xlink" width="200" height="200"><path d="M511.008 0c-112 0-207.52 100.768-224.928 235.216-16.48-6.352-34.816-9.52-53.392-9.52-49.664 0-95.056 23.888-127.744 64.192-32.48 40.048-52.944 95.872-52.944 156.912 0 57.872 18.592 111.136 48.688 150.288l-43.04 53.232a252.32 252.32 0 0 0-43.04 77.44C4.704 757.12 0 788.256 0 821.024v65.648c0 17.28 4.224 35.136 12.48 49.52 9.168 15.568 21.856 26.208 38.8 29.392h45.168v17.52c0 22.768 15.056 40.896 33.424 40.896H892.16c18.128 0 32.944-18.128 32.944-40.912v-17.52h45.664c16.448-3.184 29.648-13.824 38.56-29.392a104.224 104.224 0 0 0 12.72-49.52v-65.648a297.76 297.76 0 0 0-14.816-93.28 248.8 248.8 0 0 0-43.072-77.44l-43.296-53.232c30.128-39.136 48.944-92.416 48.944-150.288 0-61.04-20.448-116.864-53.152-156.912-32.448-40.304-78.112-64.192-127.536-64.192a153.632 153.632 0 0 0-53.856 9.52C718.304 100.768 622.544 0 511.008 0z m-102.336 942.544V906.56l-0.48-3.76v-143.936c0-13.552-8.72-24.48-19.52-24.48s-20 10.944-20 24.48v106.8h-85.648c-1.152-2.304-1.632-6.016-1.632-9.216v-86.624c0-30.832 4.256-59.328 13.168-85.52v-0.288c5.408-15.536 12.48-30.496 21.184-45.472l0.464-0.592 0.448-0.304 0.24-0.56 0.24-0.592c5.408-8.624 11.296-16.384 17.648-24.448l71.312-87.248c65.392 41.456 144.448 41.456 209.376 0l71.52 87.248c6.112 8.064 12.24 15.824 17.392 24.448l0.48 0.592v0.56l0.496 0.304 0.448 0.592c8.96 14.976 16 29.936 21.152 45.472v0.288c8.704 26.192 13.168 54.688 13.168 85.52v86.624c0 3.2-0.448 6.928-1.392 9.216H653.12v-106.8c0-13.552-9.168-24.48-20.016-24.48-10.8 0-19.52 10.944-19.52 24.48v143.936l-0.448 3.76V942.544H408.672zM350.08 278.112c0-108.24 71.984-196.912 160.928-196.912 88.464 0 160.928 88.672 160.928 196.912 0 256.8-321.856 256.8-321.856 0z m508.208 664.432h-96.448c12.448-5.2 22.592-15.28 30.128-28.528 9.856-16.384 15.04-37.408 15.04-57.584v-86.624c0-35.696-4.944-69.984-14.352-101.92 26.816-0.576 52.016-8.624 74.592-21.28l49.84 60.416a174.944 174.944 0 0 1 29.2 52.112 204.32 204.32 0 0 1 9.168 61.888v63.024h-57.648v-71.648c0-13.248-8.464-24.48-19.76-24.48-10.816 0-19.76 11.232-19.76 24.48v130.144z m-123.28-620.112a110.592 110.592 0 0 1 19.296-9.504 93.712 93.712 0 0 1 34.8-6.624c31.296 0 60.016 16.128 80.72 41.152 20.464 25.328 33.648 60.176 33.648 99.328 0 38.304-13.168 73.392-33.648 99.024v-0.304c-20.704 25.632-49.424 40.912-80.72 40.912-8.688 0-15.968-0.32-23.04-2.016-4.704-1.744-9.408-3.2-14.112-5.184-5.888-8.08-11.776-16.688-18.336-24.48l-63.536-78.32 1.424-1.408c29.648-36.848 50.336-82.352 60.24-131.872l0.448-1.712V340.288l0.448-1.152 1.888-11.52v-1.44l0.24-1.136 0.24-2.608zM163.744 942.544v-130.128c0-13.248-9.168-24.48-20.256-24.48-10.8 0-19.728 11.232-19.728 24.48v71.648H66.336v-63.024c0-21.856 2.848-42.592 9.2-61.888 6.336-18.4 16-35.968 29.408-52.112l49.648-60.416c22.592 12.656 47.744 20.704 74.592 21.28-9.408 31.936-14.144 66.224-14.144 101.92v86.624c0 20.176 5.2 41.184 14.608 57.584 7.536 13.248 17.888 23.328 30.112 28.528h-96.016v-0.016z m122.8-620.112l0.48 2.608v1.136l0.496 0.864v0.592l1.632 11.52 0.256 1.152v0.256l0.208 0.88 0.24 1.712c10.112 49.52 30.576 95.024 60.224 131.872l1.648 1.408-63.744 78.32a336.624 336.624 0 0 0-18.368 24.48c-4.224 1.984-9.408 3.44-14.08 5.184-6.832 1.696-14.144 2.016-22.832 2.016-31.296 0-60-15.28-80.688-40.912v0.304c-20.704-25.632-33.424-60.736-33.424-99.024 0-39.152 12.72-74 33.424-99.328 20.704-25.024 49.392-41.152 80.688-41.152 12.448 0 24.224 2.304 34.576 6.624 7.056 2.576 13.168 5.472 19.264 9.488z" fill="#6632cc" p-id="11456"></path></svg>